<?xml version="1.0" standalone="no"?>
<!DOCTYPE svg PUBLIC "-//W3C//DTD SVG 20010904//EN"
 "http://www.w3.org/TR/2001/REC-SVG-20010904/DTD/svg10.dtd">
<svg version="1.0" xmlns="http://www.w3.org/2000/svg"
 width="564.000000pt" height="564.000000pt" viewBox="0 0 564.000000 564.000000"
 preserveAspectRatio="xMidYMid meet">
<metadata>
Created by potrace 1.14, written by Peter Selinger 2001-2017
</metadata>
<g transform="translate(0.000000,564.000000) scale(0.100000,-0.100000)"
fill="#000000" stroke="none">
<path d="M2166 4943 c-3 -4 -67 -12 -137 -17 -20 -2 -40 -5 -45 -8 -5 -3 -27
-9 -49 -13 -44 -9 -42 -9 -70 -19 -96 -37 -232 -96 -285 -125 -60 -32 -178
-107 -190 -120 -3 -3 -27 -24 -55 -46 -65 -51 -245 -235 -245 -250 0 -3 -22
-36 -49 -74 -27 -38 -60 -89 -72 -113 -12 -23 -26 -49 -32 -57 -23 -28 -118
-268 -131 -332 -3 -13 -12 -49 -20 -79 -25 -95 -28 -120 -32 -330 l-3 -204
-53 -13 c-29 -7 -63 -14 -75 -17 -23 -5 -185 -84 -193 -95 -3 -3 -22 -18 -42
-34 -44 -33 -133 -122 -168 -167 -69 -92 -140 -239 -160 -335 -7 -33 -17 -67
-21 -76 -8 -17 -23 -142 -23 -199 0 -65 15 -182 31 -244 8 -34 16 -65 18 -71
11 -54 133 -259 189 -319 20 -21 26 -35 21 -53 -3 -13 -2 -29 2 -36 4 -7 8
-14 9 -17 7 -38 28 -102 35 -106 10 -6 6 117 -5 134 -4 7 -3 12 1 12 10 0 9
53 -2 69 -3 6 -2 11 2 11 5 0 8 15 8 33 -3 96 49 277 122 427 26 52 49 97 52
100 3 3 21 27 40 54 52 74 127 151 184 189 69 45 111 71 117 72 3 1 25 11 49
23 88 44 186 63 331 66 l75 2 1 89 c0 50 4 119 9 155 5 36 10 70 10 75 0 6 3
15 7 20 3 6 9 26 13 45 4 19 11 41 15 50 4 8 20 42 34 75 31 68 114 195 127
195 5 0 9 4 9 10 0 13 86 96 123 118 15 9 27 20 27 24 0 7 56 34 74 36 5 0 12
4 15 9 21 31 186 77 316 90 108 10 108 10 113 -5 2 -7 0 -12 -5 -11 -4 1 -15
0 -23 -4 -8 -3 -32 -11 -52 -17 -20 -6 -42 -18 -48 -26 -7 -7 -16 -14 -21 -14
-12 0 -116 -64 -147 -91 -15 -13 -58 -50 -94 -82 -37 -31 -93 -92 -124 -135
-32 -42 -62 -80 -67 -83 -5 -3 -9 -10 -10 -15 0 -5 -13 -36 -28 -69 -26 -58
-45 -122 -41 -137 1 -5 -1 -8 -5 -8 -20 0 -21 -294 -1 -306 4 -3 8 -14 8 -24
0 -10 16 -52 35 -93 32 -69 37 -107 14 -107 -5 0 -9 -6 -9 -13 0 -19 -45 -56
-74 -61 -15 -3 -39 6 -66 24 -53 35 -99 44 -208 42 -162 -4 -336 -83 -472
-214 -76 -74 -172 -223 -184 -288 -1 -8 -8 -35 -15 -60 -8 -25 -15 -52 -16
-60 -5 -26 -19 -175 -17 -182 1 -4 4 -34 7 -68 16 -192 105 -382 240 -515 139
-136 337 -239 525 -274 36 -7 596 -9 1645 -8 1774 3 1629 -3 1835 73 263 97
464 251 623 475 26 37 47 72 47 78 0 6 5 11 11 11 5 0 8 4 4 9 -3 5 -1 12 5
16 26 16 101 245 117 358 21 154 -2 401 -49 513 -6 16 -12 31 -12 34 -3 15
-41 88 -54 103 -8 9 -12 17 -8 17 12 0 -99 144 -154 201 -119 120 -298 224
-467 271 l-84 23 7 45 c14 91 3 279 -22 386 -22 96 -66 219 -103 289 -53 100
-65 119 -88 142 -13 12 -23 26 -23 31 0 10 -136 150 -181 187 -49 41 -99 75
-109 75 -5 0 -10 3 -10 8 0 16 -214 115 -297 137 -164 44 -392 53 -544 21 -78
-17 -203 -59 -286 -98 -65 -30 -217 -119 -221 -130 -2 -4 -8 -8 -13 -8 -10 0
-41 -25 -113 -92 -28 -26 -54 -48 -58 -48 -5 0 -8 -7 -8 -15 0 -8 -4 -15 -8
-15 -11 0 -105 -138 -121 -177 -16 -38 -32 -43 -91 -26 -24 7 -73 14 -108 14
-36 1 -61 4 -56 8 11 7 38 63 36 74 -1 4 2 7 6 7 5 0 14 12 21 28 12 25 108
176 135 210 36 47 196 198 196 186 0 -4 20 10 44 30 24 20 49 36 55 36 6 0 11
5 11 10 0 6 6 10 13 10 7 0 30 12 51 26 21 14 43 27 49 28 7 1 19 6 27 11 8 5
20 10 25 11 6 1 38 11 72 23 35 12 73 23 85 25 13 3 23 5 23 6 0 3 39 10 70
13 17 2 35 6 40 9 6 3 103 5 215 3 l205 -3 -110 109 c-132 131 -176 169 -193
169 -7 0 -11 4 -7 9 3 5 -4 12 -15 16 -11 3 -20 11 -20 16 0 5 -3 8 -7 7 -5
-1 -44 21 -88 50 -44 29 -84 52 -88 52 -5 0 -21 8 -35 19 -26 18 -173 82 -189
83 -4 0 -17 5 -28 10 -10 6 -42 17 -70 25 -27 8 -72 21 -100 30 -105 30 -153
35 -363 37 -106 1 -194 1 -196 -1z m54 -1383 c0 -5 -4 -10 -10 -10 -5 0 -10 5
-10 10 0 6 5 10 10 10 6 0 10 -4 10 -10z m57 3 c-9 -8 -47 -11 -47 -4 0 5 11
9 25 9 14 0 24 -2 22 -5z m1188 -207 c245 -36 489 -184 620 -377 28 -41 52
-76 55 -79 3 -3 22 -45 42 -95 81 -198 94 -424 37 -640 -6 -22 -14 -44 -17
-50 -4 -5 -7 -12 -7 -15 -2 -19 -39 -72 -58 -82 -54 -29 -94 -26 -150 12 -56
38 -63 59 -38 109 12 22 19 41 15 41 -4 0 -2 6 4 13 10 12 26 65 38 127 8 45
9 171 1 235 -13 104 -55 203 -132 310 -28 39 -145 146 -168 154 -7 2 -14 7
-17 11 -13 19 -138 72 -201 86 -13 3 -35 7 -49 10 -92 20 -242 1 -323 -42 -27
-14 -61 -27 -75 -28 -35 -4 -82 23 -108 62 -40 59 -9 149 66 191 34 19 207 57
217 48 2 -3 15 -2 29 2 31 8 152 6 219 -3z"/>
</g>
</svg>
